<svg width="24" height="24" viewBox="0 0 24 24" fill="none" xmlns="http://www.w3.org/2000/svg">
<path d="M4.08675 5.0622H2.75029C2.54709 5.0622 2.36733 5.14195 2.21102 5.30144C2.07034 5.44498 2 5.62041 2 5.82775V19.9904C2 20.1978 2.07034 20.3812 2.21102 20.5407C2.36733 20.6842 2.54709 20.756 2.75029 20.756H18.1079C18.2642 20.756 18.4048 20.7161 18.5299 20.6364C18.6549 20.5407 18.7487 20.4211 18.8113 20.2775L18.8347 20.2057L10.0891 11.2823H6.07972C5.92341 11.2823 5.78273 11.3301 5.65768 11.4258C5.53263 11.5056 5.43884 11.6172 5.37632 11.7608L3.68816 16.0431V6.78469H5.68113L4.41501 5.49282C4.35248 5.42903 4.28996 5.36523 4.22743 5.30144C4.18054 5.22169 4.13365 5.14195 4.08675 5.0622ZM15.7632 11.2823H17.0293V9.51196H14.0281L12.34 7.78947H17.9672C18.186 7.78947 18.3658 7.86922 18.5064 8.02871C18.6471 8.17225 18.7175 8.34769 18.7175 8.55502V11.2823H21.2497C21.4685 11.2823 21.6483 11.362 21.789 11.5215C21.9297 11.6651 22 11.8405 22 12.0478C22 12.0957 21.9922 12.1435 21.9766 12.1914C21.9766 12.2392 21.9687 12.2871 21.9531 12.3349L20.476 16.0909L15.7632 11.2823ZM2.7034 2.28708C2.9066 2.09569 3.14107 2 3.4068 2C3.68816 2 3.93044 2.09569 4.13365 2.28708L21.7186 20.2536C21.9062 20.445 22 20.6842 22 20.9713C22 21.2584 21.9062 21.4976 21.7186 21.689C21.5154 21.8963 21.2732 22 20.9918 22C20.7261 22 20.4916 21.8963 20.2884 21.689L2.7034 3.74641C2.51583 3.53907 2.42204 3.29984 2.42204 3.02871C2.42204 2.74163 2.51583 2.49442 2.7034 2.28708Z" fill="#FF0000"/>
</svg>
