<svg width="24" height="24" viewBox="0 0 24 24" fill="none" xmlns="http://www.w3.org/2000/svg">
<path d="M22.2122 9.85212H19.5533V6.84773C19.5533 6.61933 19.4795 6.42606 19.3318 6.26794C19.1841 6.09224 18.9953 6.00439 18.7655 6.00439H12.0692L9.18875 3.05271C9.17233 3.03514 9.14771 3.02635 9.11489 3.02635C9.09848 3.00878 9.07386 3 9.04103 3H2.78781C2.57444 3 2.3857 3.08785 2.22157 3.26354C2.07386 3.42167 2 3.61493 2 3.84334V20.1567C2 20.3851 2.07386 20.5871 2.22157 20.7628C2.3857 20.9209 2.57444 21 2.78781 21H18.9132C19.0774 21 19.2251 20.9561 19.3564 20.8682C19.4877 20.7628 19.5862 20.631 19.6518 20.4729L22.9508 11.0117C22.9672 10.959 22.9754 10.9063 22.9754 10.8536C22.9918 10.8009 23 10.7482 23 10.6955C23 10.4671 22.9261 10.2738 22.7784 10.1157C22.6307 9.93997 22.442 9.85212 22.2122 9.85212ZM17.7808 9.85212H6.2837C6.11958 9.85212 5.97186 9.90483 5.84056 10.0102C5.70926 10.0981 5.61079 10.2211 5.54513 10.3792L3.77257 15.0966V4.89751H8.42556L11.3552 7.9019H17.7808V9.85212Z" fill="#2565ED"/>
</svg>
