<svg width="24" height="24" viewBox="0 0 24 24" fill="none" xmlns="http://www.w3.org/2000/svg">
<path d="M4.08675 5.06587H2.72685C2.52364 5.06587 2.3517 5.13772 2.21102 5.28144C2.07034 5.42515 2 5.6008 2 5.80838V19.6287C2 19.8363 2.07034 20.02 2.21102 20.1796C2.3517 20.3234 2.52364 20.3952 2.72685 20.3952H18.9988L4.41501 5.47305C4.35248 5.40918 4.28996 5.34531 4.22743 5.28144C4.18054 5.2016 4.13365 5.12974 4.08675 5.06587ZM20.007 15.6287V8.46707C20.007 8.27545 19.9367 8.10778 19.796 7.96407C19.6553 7.80439 19.4834 7.72455 19.2802 7.72455H12.2696L20.007 15.6287ZM2.7034 2.28743C2.9066 2.09581 3.14107 2 3.4068 2C3.68816 2 3.93044 2.09581 4.13365 2.28743L21.7186 20.2515C21.9062 20.4591 22 20.7066 22 20.994C22 21.2655 21.9062 21.505 21.7186 21.7126C21.5154 21.9042 21.2732 22 20.9918 22C20.7261 22 20.4916 21.9042 20.2884 21.7126L2.7034 3.7485C2.51583 3.54092 2.42204 3.3014 2.42204 3.02994C2.42204 2.74251 2.51583 2.49501 2.7034 2.28743Z" fill="#FF0000"/>
</svg>
