<svg width="24" height="24" viewBox="0 0 24 24" fill="none" xmlns="http://www.w3.org/2000/svg">
<path d="M21.1927 6.12188H12.2344L9.29167 3.05625C9.27431 3.0375 9.24826 3.02813 9.21354 3.02813C9.19618 3.00938 9.17882 3 9.16146 3H2.80729C2.5816 3 2.39063 3.08438 2.23438 3.25313C2.07813 3.42188 2 3.62813 2 3.87188V20.1C2 20.3438 2.07813 20.5594 2.23438 20.7469C2.39063 20.9156 2.5816 21 2.80729 21H21.1927C21.4184 21 21.6094 20.9156 21.7656 20.7469C21.9219 20.5594 22 20.3438 22 20.1V6.99375C22 6.76875 21.9219 6.57188 21.7656 6.40313C21.6094 6.21563 21.4184 6.12188 21.1927 6.12188Z" fill="#2565ED"/>
</svg>
