<svg width="32" height="32" viewBox="0 0 32 32" fill="none" xmlns="http://www.w3.org/2000/svg">
<g clip-path="url(#clip0_608_433)">
<path d="M11 11H4V13H11V11Z" fill="#919191"/>
<path d="M28 19H13V11H28V19ZM15 17H26V13H15V17Z" fill="#919191"/>
<path d="M6 7H3V9H6V7Z" fill="#919191"/>
<path d="M10 7H7V9H10V7Z" fill="#919191"/>
<path d="M14 7H11V9H14V7Z" fill="#919191"/>
<path d="M18 7H15V9H18V7Z" fill="#919191"/>
<path d="M22 7H19V9H22V7Z" fill="#919191"/>
<path d="M26 7H23V9H26V7Z" fill="#919191"/>
<path d="M29 7H27V9H29V7Z" fill="#919191"/>
<path d="M29 21H26V23H29V21Z" fill="#919191"/>
<path d="M25 21H22V23H25V21Z" fill="#919191"/>
<path d="M21 21H18V23H21V21Z" fill="#919191"/>
<path d="M17 21H14V23H17V21Z" fill="#919191"/>
<path d="M13 21H10V23H13V21Z" fill="#919191"/>
<path d="M9 21H6V23H9V21Z" fill="#919191"/>
<path d="M5 21H3V23H5V21Z" fill="#919191"/>
<path d="M32 32H0V0H32V32ZM2 30H30V2H2V30Z" fill="#919191"/>
</g>
<defs>
<clipPath id="clip0_608_433">
<rect width="32" height="32" fill="white"/>
</clipPath>
</defs>
</svg>
