<svg width="32" height="32" viewBox="0 0 32 32" fill="none" xmlns="http://www.w3.org/2000/svg">
<path fill-rule="evenodd" clip-rule="evenodd" d="M15 6H4V26H15V6ZM13 8H6V12H13V8ZM8 14H13V15H8V14ZM13 17H8V18H13V17ZM8 20H13V21H8V20ZM13 23H8V24H13V23ZM6 14H7V15H6V14ZM7 17H6V18H7V17ZM6 20H7V21H6V20ZM7 23H6V24H7V23Z" fill="#919191"/>
<path fill-rule="evenodd" clip-rule="evenodd" d="M28 6H17V26H28V6ZM26 8H19V12H26V8ZM21 14H26V15H21V14ZM26 17H21V18H26V17ZM21 20H26V21H21V20ZM26 23H21V24H26V23ZM19 14H20V15H19V14ZM20 17H19V18H20V17ZM19 20H20V21H19V20ZM20 23H19V24H20V23Z" fill="#919191"/>
</svg>
