<svg width="32" height="32" viewBox="0 0 32 32" fill="none" xmlns="http://www.w3.org/2000/svg">
<rect x="17" y="11" width="12" height="10" stroke="#919191" stroke-width="2"/>
<rect x="2" y="6" width="3" height="2" fill="#919191"/>
<rect x="2" y="24" width="3" height="2" fill="#919191"/>
<rect x="7" y="6" width="2" height="2" fill="#919191"/>
<rect x="7" y="24" width="2" height="2" fill="#919191"/>
<rect x="11" y="6" width="2" height="2" fill="#919191"/>
<rect x="11" y="24" width="2" height="2" fill="#919191"/>
<rect x="15" y="6" width="2" height="2" fill="#919191"/>
<rect x="15" y="24" width="2" height="2" fill="#919191"/>
<rect x="19" y="6" width="2" height="2" fill="#919191"/>
<rect x="19" y="24" width="2" height="2" fill="#919191"/>
<rect x="23" y="6" width="2" height="2" fill="#919191"/>
<rect x="23" y="24" width="2" height="2" fill="#919191"/>
<rect x="27" y="6" width="3" height="2" fill="#919191"/>
<rect x="27" y="24" width="3" height="2" fill="#919191"/>
<rect x="2" y="12" width="12" height="2" fill="#919191"/>
<rect x="2" y="16" width="12" height="1" fill="#919191"/>
<rect x="2" y="18" width="6" height="1" fill="#919191"/>
</svg>
