<svg width="32" height="32" viewBox="0 0 32 32" fill="none" xmlns="http://www.w3.org/2000/svg">
<rect x="3" y="7" width="26" height="18" stroke="#919191" stroke-width="2"/>
<rect x="18" y="12" width="8" height="1" fill="#919191"/>
<rect x="18" y="15" width="6" height="1" fill="#919191"/>
<rect x="18" y="18" width="8" height="2" fill="#919191"/>
<path fill-rule="evenodd" clip-rule="evenodd" d="M16 10H6V20.1374L8.33816 16.4631L9.18182 15.1374L10.0255 16.4631L11.7194 19.125L12.7191 17.8753L13.5452 16.8428L14.3137 17.9188L16 20.2795V10ZM13.5489 22L12.8541 20.9081L13.4548 20.1572L14.7711 22H13.5489ZM11.1783 22L9.18182 18.8626L7.18531 22H11.1783ZM12.5 15C13.3284 15 14 14.3284 14 13.5C14 12.6716 13.3284 12 12.5 12C11.6716 12 11 12.6716 11 13.5C11 14.3284 11.6716 15 12.5 15Z" fill="#919191"/>
</svg>
